# Exported from Wings 3D 0.98.28a
mtllib crate.mtl
o cube1
#8 vertices, 6 faces
v -1.00000000 -1.00000000 1.00000000
v -1.00000000 1.00000000 1.00000000
v 1.00000000 1.00000000 1.00000000
v 1.00000000 -1.00000000 1.00000000
v -1.00000000 -1.00000000 -1.00000000
v -1.00000000 1.00000000 -1.00000000
v 1.00000000 1.00000000 -1.00000000
v 1.00000000 -1.00000000 -1.00000000
vt -1.1102230e-16 1.00000000
vt 0.0000000e+0 0.0000000e+0
vt 0.0000000e+0 6.1230318e-17
vt 0.0000000e+0 1.7225262e-16
vt 0.0000000e+0 1.00000000
vt 5.5511151e-17 1.00000000
vt 6.1230318e-17 0.0000000e+0
vt 1.1102230e-16 1.00000000
vt 1.7225262e-16 -1.1102230e-16
vt 1.00000000 1.00000000
vt 1.00000000 3.7491518e-33
vt 1.00000000 1.00000000
vt 1.00000000 0.0000000e+0
vt 1.00000000 5.5511151e-17
vt 1.00000000 1.1102230e-16
vt 1.00000000 1.00000000
vn 0.0000000e+0 0.0000000e+0 1.00000000
vn 0.0000000e+0 -1.00000000 0.0000000e+0
vn -1.00000000 0.0000000e+0 0.0000000e+0
vn 0.0000000e+0 0.0000000e+0 1.00000000
vn 0.0000000e+0 1.00000000 0.0000000e+0
vn -1.00000000 0.0000000e+0 0.0000000e+0
vn 0.0000000e+0 0.0000000e+0 1.00000000
vn 1.00000000 0.0000000e+0 0.0000000e+0
vn 0.0000000e+0 1.00000000 0.0000000e+0
vn 0.0000000e+0 0.0000000e+0 1.00000000
vn 1.00000000 0.0000000e+0 0.0000000e+0
vn 0.0000000e+0 -1.00000000 0.0000000e+0
vn 0.0000000e+0 -1.00000000 0.0000000e+0
vn 0.0000000e+0 0.0000000e+0 -1.00000000
vn -1.00000000 0.0000000e+0 0.0000000e+0
vn 0.0000000e+0 1.00000000 0.0000000e+0
vn 0.0000000e+0 0.0000000e+0 -1.00000000
vn -1.00000000 0.0000000e+0 0.0000000e+0
vn 1.00000000 0.0000000e+0 0.0000000e+0
vn 0.0000000e+0 1.00000000 0.0000000e+0
vn 0.0000000e+0 0.0000000e+0 -1.00000000
vn 1.00000000 0.0000000e+0 0.0000000e+0
vn 0.0000000e+0 -1.00000000 0.0000000e+0
vn 0.0000000e+0 0.0000000e+0 -1.00000000
g cube1_cube1_auv2
usemtl metal
f 1/2/1 4/13/10 3/16/7 2/5/4
f 4/9/11 8/15/22 7/10/19 3/1/8
f 6/12/17 7/8/21 8/4/24 5/11/14
f 2/16/6 6/8/18 5/3/15 1/14/3
f 3/13/9 7/16/20 6/5/16 2/2/5
f 1/6/2 5/7/13 8/15/23 4/16/12
