# Exported from Wings 3D 0.98.25
mtllib thing.mtl
o cube2
#20 vertices, 18 faces
v 0.00000e+0 0.00000e+0 1.00000
v 0.00000e+0 1.00000 1.00000
v 1.00000 1.00000 1.00000
v 1.00000 0.00000e+0 1.00000
v 0.00000e+0 0.00000e+0 0.00000e+0
v 0.00000e+0 1.00000 0.00000e+0
v 1.00000 1.00000 0.00000e+0
v 1.00000 0.00000e+0 0.00000e+0
v 3.00000 1.00000 1.00000
v 3.00000 0.00000e+0 1.00000
v 3.00000 0.00000e+0 0.00000e+0
v 3.00000 1.00000 0.00000e+0
v 0.00000e+0 3.00000 1.00000
v 1.00000 3.00000 1.00000
v 1.00000 3.00000 0.00000e+0
v 0.00000e+0 3.00000 0.00000e+0
v 0.00000e+0 1.00000 3.00000
v 0.00000e+0 0.00000e+0 3.00000
v 1.00000 0.00000e+0 3.00000
v 1.00000 1.00000 3.00000
vn 0.00000e+0 -1.00000 0.00000e+0
vn -1.00000 0.00000e+0 0.00000e+0
vn -1.00000 0.00000e+0 0.00000e+0
vn 0.00000e+0 -1.00000 0.00000e+0
vn -1.00000 0.00000e+0 0.00000e+0
vn 0.00000e+0 0.00000e+0 1.00000
vn -1.00000 0.00000e+0 0.00000e+0
vn -1.00000 0.00000e+0 0.00000e+0
vn 0.00000e+0 1.00000 0.00000e+0
vn 0.00000e+0 0.00000e+0 1.00000
vn 0.00000e+0 1.00000 0.00000e+0
vn 0.00000e+0 0.00000e+0 1.00000
vn 1.00000 0.00000e+0 0.00000e+0
vn 1.00000 0.00000e+0 0.00000e+0
vn 0.00000e+0 1.00000 0.00000e+0
vn 0.00000e+0 -1.00000 0.00000e+0
vn 0.00000e+0 0.00000e+0 1.00000
vn 0.00000e+0 -1.00000 0.00000e+0
vn 0.00000e+0 -1.00000 0.00000e+0
vn 1.00000 0.00000e+0 0.00000e+0
vn 0.00000e+0 -1.00000 0.00000e+0
vn 0.00000e+0 0.00000e+0 -1.00000
vn -1.00000 0.00000e+0 0.00000e+0
vn 0.00000e+0 0.00000e+0 -1.00000
vn -1.00000 0.00000e+0 0.00000e+0
vn 0.00000e+0 0.00000e+0 -1.00000
vn -1.00000 0.00000e+0 0.00000e+0
vn 0.00000e+0 0.00000e+0 -1.00000
vn 0.00000e+0 0.00000e+0 -1.00000
vn 0.00000e+0 1.00000 0.00000e+0
vn 1.00000 0.00000e+0 0.00000e+0
vn 0.00000e+0 0.00000e+0 -1.00000
vn 0.00000e+0 -1.00000 0.00000e+0
vn 0.00000e+0 0.00000e+0 -1.00000
vn 0.00000e+0 -1.00000 0.00000e+0
vn 0.00000e+0 0.00000e+0 -1.00000
vn 1.00000 0.00000e+0 0.00000e+0
vn 0.00000e+0 0.00000e+0 1.00000
vn 0.00000e+0 1.00000 0.00000e+0
vn 1.00000 0.00000e+0 0.00000e+0
vn 0.00000e+0 0.00000e+0 1.00000
vn 0.00000e+0 -1.00000 0.00000e+0
vn 1.00000 0.00000e+0 0.00000e+0
vn 0.00000e+0 -1.00000 0.00000e+0
vn 0.00000e+0 0.00000e+0 -1.00000
vn 1.00000 0.00000e+0 0.00000e+0
vn 0.00000e+0 0.00000e+0 -1.00000
vn 0.00000e+0 1.00000 0.00000e+0
vn 0.00000e+0 1.00000 0.00000e+0
vn 0.00000e+0 0.00000e+0 1.00000
vn -1.00000 0.00000e+0 0.00000e+0
vn 0.00000e+0 1.00000 0.00000e+0
vn 0.00000e+0 0.00000e+0 1.00000
vn 1.00000 0.00000e+0 0.00000e+0
vn 0.00000e+0 1.00000 0.00000e+0
vn 1.00000 0.00000e+0 0.00000e+0
vn 0.00000e+0 0.00000e+0 -1.00000
vn 0.00000e+0 1.00000 0.00000e+0
vn 0.00000e+0 0.00000e+0 -1.00000
vn -1.00000 0.00000e+0 0.00000e+0
vn 0.00000e+0 0.00000e+0 1.00000
vn -1.00000 0.00000e+0 0.00000e+0
vn 0.00000e+0 1.00000 0.00000e+0
vn 0.00000e+0 0.00000e+0 1.00000
vn -1.00000 0.00000e+0 0.00000e+0
vn 0.00000e+0 -1.00000 0.00000e+0
vn 0.00000e+0 0.00000e+0 1.00000
vn 0.00000e+0 -1.00000 0.00000e+0
vn 1.00000 0.00000e+0 0.00000e+0
vn 0.00000e+0 0.00000e+0 1.00000
vn 1.00000 0.00000e+0 0.00000e+0
vn 0.00000e+0 1.00000 0.00000e+0
g cube2_B
usemtl B
f 8//34 5//22 6//24 7//28
f 17//61 18//64 19//67 20//70
g cube2_G
usemtl G
f 8//33 4//16 1//1 5//21
f 13//49 14//52 15//55 16//58
g cube2_R
usemtl R
f 5//23 1//2 2//5 6//25
f 9//37 10//40 11//43 12//46
g cube2_default
usemtl default
f 10//41 9//38 3//10 4//17
f 11//44 10//42 4//18 8//35
f 12//48 7//30 3//11 9//39
f 12//47 11//45 8//36 7//29
f 14//53 13//50 2//6 3//12
f 15//56 14//54 3//13 7//31
f 16//60 6//27 2//7 13//51
f 16//59 15//57 7//32 6//26
f 18//65 17//62 2//8 1//3
f 19//68 18//66 1//4 4//19
f 20//72 3//15 2//9 17//63
f 20//71 19//69 4//20 3//14
